<svg viewBox="0 0 1440 900" fill="none" xmlns="http://www.w3.org/2000/svg">
<g clip-path="url(#clip0_2084_1170)">
<rect width="1440" height="900" fill="#111111"/>
<path fill-rule="evenodd" clip-rule="evenodd" d="M357.588 604.823C478.601 637.18 627.259 626.107 694.887 737.136C761.28 846.138 679.987 984.218 668.324 1114.98C655.053 1263.78 735.182 1452.15 622.946 1543.76C510.825 1635.27 356.794 1525.08 225.458 1476.44C127.968 1440.33 50.4525 1380.12 -23.7212 1304.23C-122.208 1203.47 -257.217 1119.67 -266.338 973.29C-276.746 806.259 -210.596 614.071 -71.8327 532.123C61.4648 453.402 211.681 565.809 357.588 604.823Z" fill="#111111" stroke="#222222" stroke-width="2"/>
<path fill-rule="evenodd" clip-rule="evenodd" d="M317.127 668.696C419.42 695.281 544.676 687.699 602.583 776.148C659.434 862.983 591.99 971.663 583.2 1075.1C573.197 1192.81 642.262 1342.6 548.358 1414.24C454.55 1485.8 323.796 1397.33 212.669 1357.76C130.181 1328.4 64.3413 1280.11 1.19482 1219.43C-82.6502 1138.87 -197.155 1071.44 -206.013 955.463C-216.121 823.13 -161.877 671.487 -45.5292 607.71C66.2359 546.444 193.791 636.642 317.127 668.696Z" fill="#111111" stroke="#222222" stroke-width="2"/>
<path fill-rule="evenodd" clip-rule="evenodd" d="M286.153 702.695C370.777 724.688 474.398 718.415 522.303 791.589C569.334 863.428 513.539 953.339 506.266 1038.91C497.99 1136.3 555.125 1260.22 477.44 1319.48C399.835 1378.69 291.667 1305.5 199.735 1272.77C131.494 1248.47 77.0272 1208.52 24.7881 1158.32C-44.5743 1091.67 -139.3 1035.89 -146.628 939.941C-154.989 830.461 -110.114 705.006 -13.8624 652.242C78.5982 601.556 184.12 676.177 286.153 702.695Z" fill="#111111" stroke="#222222" stroke-width="2"/>
<path fill-rule="evenodd" clip-rule="evenodd" d="M286.334 762.12C358.193 780.796 446.183 775.468 486.861 837.606C526.797 898.609 479.418 974.961 473.243 1047.63C466.214 1130.33 514.73 1235.56 448.764 1285.88C382.865 1336.16 291.014 1274.01 212.95 1246.21C155.003 1225.58 108.753 1191.66 64.3941 1149.03C5.49517 1092.43 -74.9414 1045.06 -81.1633 963.586C-88.2628 870.618 -50.1564 764.084 31.5761 719.278C110.089 676.236 199.693 739.602 286.334 762.12Z" fill="#111111" stroke="#222222" stroke-width="2"/>
<path fill-rule="evenodd" clip-rule="evenodd" d="M267.512 820.234C321.702 834.319 388.057 830.3 418.732 877.162C448.848 923.17 413.118 980.753 408.46 1035.56C403.159 1097.93 439.745 1177.29 389.998 1215.24C340.302 1253.16 271.036 1206.29 212.166 1185.33C168.468 1169.77 133.59 1144.18 100.139 1112.04C55.7225 1069.35 -4.93579 1033.63 -9.62706 972.18C-14.98 902.065 13.7578 821.719 75.3942 787.926C134.603 755.464 202.174 803.252 267.512 820.234Z" fill="#111111" stroke="#222222" stroke-width="2"/>
<path fill-rule="evenodd" clip-rule="evenodd" d="M907.783 725.959C928.358 626.377 909.081 494.658 1002.06 456.176C1093.33 418.396 1219.61 514.815 1334.99 549.143C1466.28 588.206 1626.25 553.107 1713.78 667.932C1801.22 782.64 1714.54 896.647 1680.35 1002.22C1654.98 1080.59 1607.19 1137.09 1545.44 1187.77C1463.45 1255.07 1398.68 1357.36 1270.95 1338.27C1125.2 1316.5 952.467 1223.29 871.698 1087.11C794.11 956.296 882.976 846.027 907.783 725.959Z" fill="#111111" stroke="#222222" stroke-width="2"/>
<path fill-rule="evenodd" clip-rule="evenodd" d="M966.38 773.052C983.1 688.733 968.39 578.072 1042.2 543.898C1114.66 510.348 1214.27 589.255 1305.51 616.03C1409.34 646.5 1536.2 613.925 1605.04 709.07C1673.81 804.117 1604.68 901.831 1577.15 991.458C1556.71 1057.99 1518.62 1106.5 1469.5 1150.37C1404.27 1208.63 1352.53 1296.06 1251.44 1282.36C1136.09 1266.73 999.662 1191.4 936.265 1078.13C875.364 969.321 946.221 874.717 966.38 773.052Z" fill="#111111" stroke="#222222" stroke-width="2"/>
<path fill-rule="evenodd" clip-rule="evenodd" d="M998.178 806.352C1012.01 736.597 999.84 645.05 1060.9 616.779C1120.85 589.025 1203.26 654.304 1278.74 676.455C1364.64 701.664 1469.59 674.716 1526.54 753.428C1583.44 832.059 1526.24 912.894 1503.47 987.04C1486.56 1042.08 1455.05 1082.21 1414.41 1118.51C1360.45 1166.7 1317.65 1239.02 1234.01 1227.69C1138.58 1214.76 1025.71 1152.44 973.264 1058.73C922.88 968.719 981.501 890.456 998.178 806.352Z" fill="#111111" stroke="#222222" stroke-width="2"/>
<path fill-rule="evenodd" clip-rule="evenodd" d="M1050.26 817.17C1062 757.938 1051.67 680.2 1103.52 656.195C1154.43 632.628 1224.41 688.06 1288.51 706.871C1361.45 728.278 1450.57 705.396 1498.94 772.235C1547.25 839.005 1498.68 907.646 1479.34 970.607C1464.99 1017.34 1438.23 1051.42 1403.71 1082.24C1357.89 1123.16 1321.55 1184.58 1250.52 1174.95C1169.48 1163.97 1073.64 1111.05 1029.1 1031.48C986.318 955.043 1036.1 888.587 1050.26 817.17Z" fill="#111111" stroke="#222222" stroke-width="2"/>
<path fill-rule="evenodd" clip-rule="evenodd" d="M1102.41 844.325C1111.27 799.657 1103.48 741.033 1142.58 722.932C1180.97 705.161 1233.75 746.965 1282.09 761.152C1337.11 777.297 1404.32 760.043 1440.8 810.449C1477.23 860.803 1440.61 912.565 1426.02 960.045C1415.19 995.288 1395.01 1020.99 1368.98 1044.23C1334.43 1075.09 1307.01 1121.4 1253.45 1114.14C1192.33 1105.86 1120.05 1065.95 1086.46 1005.94C1054.19 948.296 1091.73 898.182 1102.41 844.325Z" fill="#111111" stroke="#222222" stroke-width="2"/>
<path fill-rule="evenodd" clip-rule="evenodd" d="M206.844 -388.153C319.758 -357.446 458.668 -367.199 521.401 -263.215C582.988 -161.128 506.5 -32.4654 495.086 89.6351C482.098 228.583 556.201 404.867 450.993 489.992C345.894 575.031 202.446 471.492 79.9531 425.529C-10.9717 391.41 -83.1428 334.86 -152.129 263.677C-243.729 169.163 -369.513 90.3444 -377.452 -46.4338C-386.511 -202.504 -323.953 -381.771 -194.005 -457.771C-69.1739 -530.776 70.7015 -425.177 206.844 -388.153Z" fill="#111111" stroke="#222222" stroke-width="2"/>
<path fill-rule="evenodd" clip-rule="evenodd" d="M168.794 -328.647C264.244 -303.407 381.28 -309.992 435.022 -227.138C487.783 -145.797 424.35 -44.5433 415.727 52.0476C405.915 161.966 469.836 302.162 381.832 368.706C293.919 435.182 172.129 352.021 68.4786 314.621C-8.46015 286.86 -69.7713 241.489 -128.517 184.559C-206.52 108.967 -313.215 45.5253 -321.029 -62.8466C-329.945 -186.504 -278.672 -327.943 -169.734 -387.057C-65.0866 -443.844 53.7083 -359.08 168.794 -328.647Z" fill="#111111" stroke="#222222" stroke-width="2"/>
<path fill-rule="evenodd" clip-rule="evenodd" d="M139.724 -297.011C218.687 -276.13 315.508 -281.578 359.967 -213.033C403.614 -145.74 351.137 -61.9717 344.004 17.9385C335.886 108.875 388.765 224.859 315.962 279.912C243.233 334.908 142.48 266.109 56.7328 235.168C-6.91638 212.202 -57.6372 174.667 -106.236 127.568C-170.765 65.0316 -259.03 12.5461 -265.494 -77.1104C-272.87 -179.413 -230.452 -296.426 -140.33 -345.332C-53.7583 -392.313 44.5171 -322.187 139.724 -297.011Z" fill="#111111" stroke="#222222" stroke-width="2"/>
<path fill-rule="evenodd" clip-rule="evenodd" d="M139.658 -241.5C206.71 -223.768 288.925 -228.395 326.677 -170.189C363.74 -113.045 319.179 -41.9101 313.121 25.948C306.227 103.169 351.13 201.661 289.308 248.411C227.55 295.113 141.996 236.69 69.1835 210.416C15.1358 190.914 -27.9337 159.04 -69.2013 119.045C-123.996 65.9408 -198.946 21.3716 -204.435 -54.7628C-210.697 -141.636 -174.678 -241.001 -98.1504 -282.532C-24.6374 -322.427 58.813 -262.879 139.658 -241.5Z" fill="#111111" stroke="#222222" stroke-width="2"/>
<path fill-rule="evenodd" clip-rule="evenodd" d="M121.843 -187.288C172.408 -173.916 234.408 -177.406 262.877 -133.508C290.827 -90.4115 257.222 -36.7629 252.653 14.4145C247.453 72.6535 281.314 146.933 234.692 182.192C188.119 217.414 123.601 173.354 68.6927 153.54C27.9344 138.832 -4.54479 114.794 -35.6651 84.6307C-76.9863 44.5807 -133.507 10.9682 -137.646 -46.4509C-142.367 -111.969 -115.203 -186.909 -57.4921 -218.231C-2.05418 -248.32 60.8768 -203.411 121.843 -187.288Z" fill="#111111" stroke="#222222" stroke-width="2"/>
<path fill-rule="evenodd" clip-rule="evenodd" d="M1617.49 120.895C1582.42 232.533 1586.78 371.717 1480.44 430.368C1376.04 487.949 1250.44 406.527 1128.88 390.385C990.537 372.016 811.512 439.224 730.532 330.793C649.634 222.473 758.66 83.15 809.342 -37.467C846.962 -127 906.27 -196.923 980.075 -263.096C1078.07 -350.96 1161.71 -473.591 1298.69 -476.218C1455 -479.215 1631.7 -409.75 1702.6 -276.95C1770.71 -149.381 1659.77 -13.708 1617.49 120.895Z" fill="#111111" stroke="#222222" stroke-width="2"/>
<path fill-rule="evenodd" clip-rule="evenodd" d="M1559.5 80.5654C1530.58 174.964 1532.62 292.168 1447.74 342.655C1364.42 392.221 1265.7 324.907 1169.52 312.544C1060.06 298.475 917.49 356.909 854.41 266.39C791.394 175.963 879.218 57.4914 920.611 -44.6301C951.337 -120.434 999.051 -179.939 1058.22 -236.432C1136.78 -311.443 1204.31 -415.596 1312.91 -419.2C1436.82 -423.312 1576.16 -366.59 1631 -255.441C1683.69 -148.67 1594.38 -33.2527 1559.5 80.5654Z" fill="#111111" stroke="#222222" stroke-width="2"/>
<path fill-rule="evenodd" clip-rule="evenodd" d="M1529.02 50.2904C1505.09 128.384 1506.78 225.343 1436.56 267.11C1367.62 308.113 1285.95 252.426 1206.38 242.198C1115.83 230.558 997.879 278.898 945.693 204.014C893.559 129.206 966.215 31.1976 1000.46 -53.2846C1025.88 -115.995 1065.35 -165.221 1114.3 -211.956C1179.29 -274.011 1235.16 -360.173 1325 -363.154C1427.52 -366.555 1542.79 -319.63 1588.17 -227.679C1631.75 -139.349 1557.87 -43.8681 1529.02 50.2904Z" fill="#111111" stroke="#222222" stroke-width="2"/>
<path fill-rule="evenodd" clip-rule="evenodd" d="M1473.55 48.0706C1453.23 114.384 1454.67 196.717 1395.04 232.183C1336.5 267.001 1267.15 219.713 1199.58 211.027C1122.68 201.143 1022.52 242.19 978.204 178.602C933.933 115.078 995.631 31.8548 1024.71 -39.8832C1046.29 -93.1337 1079.81 -134.934 1121.38 -174.619C1176.57 -227.312 1224.01 -300.477 1300.3 -303.008C1387.36 -305.895 1485.25 -266.048 1523.78 -187.967C1560.79 -112.962 1498.05 -31.8841 1473.55 48.0706Z" fill="#111111" stroke="#222222" stroke-width="2"/>
<path fill-rule="evenodd" clip-rule="evenodd" d="M1420.07 28.1667C1404.75 78.1744 1405.83 140.264 1360.86 167.008C1316.71 193.265 1264.41 157.603 1213.45 151.052C1155.45 143.597 1079.92 174.551 1046.49 126.597C1013.1 78.6919 1059.63 15.9322 1081.56 -38.1666C1097.84 -78.3236 1123.12 -109.846 1154.47 -139.772C1196.09 -179.509 1231.87 -234.683 1289.41 -236.591C1355.06 -238.767 1428.89 -208.716 1457.95 -149.833C1485.86 -93.2698 1438.55 -32.1285 1420.07 28.1667Z" fill="#111111" stroke="#222222" stroke-width="2"/>
</g>
<defs>
<clipPath id="clip0_2084_1170">
<rect width="1440" height="900" fill="white"/>
</clipPath>
</defs>
</svg>
